<?xml version="1.0" encoding="UTF-8"?>
<svg id="Layer_1" xmlns="http://www.w3.org/2000/svg" version="1.1" viewBox="0 0 1024 1024">
  <!-- Generator: Adobe Illustrator 29.3.1, SVG Export Plug-In . SVG Version: 2.1.0 Build 151)  -->
  <defs>
    <style>
      .st0 {
        fill: #0d56bf;
      }

      .st1 {
        fill: #fff;
      }

      .st2 {
        isolation: isolate;
      }
    </style>
  </defs>
  <rect class="st0" x=".6" width="1022.9" height="1024" rx="74" ry="74"/>
  <g class="st2">
    <g class="st2">
      <path class="st1" d="M80.6,769V246.1h104.1l123.8,370.2c11.4,34.5,19.7,60.3,25,77.4,5.9-19,15.2-47,27.8-83.8l125.2-363.8h93.1v522.9h-66.7v-437.6l-151.9,437.6h-62.4l-151.2-445.1v445.1h-66.7Z"/>
      <path class="st1" d="M655.9,620.6l62.4-8.6c1.7,39.9,9.2,67.3,22.5,82,13.3,14.7,31.7,22.1,55.3,22.1s32.3-4,44.9-11.9c12.6-8,21.3-18.8,26-32.5,4.8-13.7,7.1-35.5,7.1-65.4V246.1h69.2v356.3c0,43.8-5.3,77.6-15.9,101.7-10.6,24-27.3,42.3-50.3,54.9-22.9,12.6-49.9,18.9-80.8,18.9-45.9,0-81-13.2-105.4-39.6-24.4-26.4-36.1-65.6-35.1-117.7Z"/>
    </g>
  </g>
</svg>